<?xml version="1.0" encoding="UTF-8" standalone="no"?>
<svg
   width="128"
   height="128"
   version="1.1"
   id="svg22"
   sodipodi:docname="icon.svg"
   xml:space="preserve"
   inkscape:version="1.2.2 (b0a8486541, 2022-12-01)"
   xmlns:inkscape="http://www.inkscape.org/namespaces/inkscape"
   xmlns:sodipodi="http://sodipodi.sourceforge.net/DTD/sodipodi-0.dtd"
   xmlns="http://www.w3.org/2000/svg"
   xmlns:svg="http://www.w3.org/2000/svg"><defs
     id="defs26" /><sodipodi:namedview
     id="namedview24"
     pagecolor="#ffffff"
     bordercolor="#000000"
     borderopacity="0.25"
     inkscape:showpageshadow="2"
     inkscape:pageopacity="0.0"
     inkscape:pagecheckerboard="0"
     inkscape:deskcolor="#d1d1d1"
     showgrid="false"
     inkscape:zoom="4.6680096"
     inkscape:cx="109.89695"
     inkscape:cy="59.232954"
     inkscape:window-width="1920"
     inkscape:window-height="1011"
     inkscape:window-x="0"
     inkscape:window-y="0"
     inkscape:window-maximized="1"
     inkscape:current-layer="svg22" /><rect
     width="124"
     height="124"
     x="2"
     y="2"
     fill="#363d52"
     stroke="#212532"
     stroke-width="4"
     rx="14"
     id="rect2"
     style="fill:#a6a4c5;fill-opacity:1" /><g
     id="g1769"
     transform="matrix(6.2035119,0,0,6.2035119,-358.62887,-271.95531)"><path
       style="fill:#f2fc24;fill-opacity:1"
       d="m 71.687756,54.463928 q 0.125,-0.375 0.375,-0.375 0.25,0 0.375,0.375 0.125,0.375 -0.375,0.375 -0.5,0 -0.375,-0.375"
       id="path1783" /><path
       style="fill:#f2fc24;fill-opacity:1"
       d="m 69.562756,54.338928 q 0,-0.5 0.5,-0.5 0.5,0 0.5,0.5 0,0.5 -0.5,0.5 -0.5,0 -0.5,-0.5"
       id="path1781" /><path
       style="fill:#000000;fill-opacity:1"
       d="m 68.687756,54.213928 -0.125,-0.375 0.5625,0.0625 0.5625,0.0625 0.0625,-0.0625 0.0625,-0.0625 -0.125,0.125 q -0.125,0.125 -0.125,0.375 v 0.25 -0.375 -0.375 0.5 0.5 -0.375 -0.375 0.25 q 0,0.25 0.125,0.375 l 0.125,0.125 -0.0625,-0.0625 -0.0625,-0.0625 -0.4375,-0.0625 q -0.4375,-0.0625 -0.5625,-0.4375 m 0.25,-0.375 h -0.375 -0.125 -0.125 0.25 q 0.25,0 0.5,0 h 0.25 -0.375"
       id="path1779" /><path
       style="fill:#11285d;fill-opacity:1"
       d="m 66.562756,54.338928 q 0.25,-0.25 0.625,-0.375 0.375,-0.125 0.875,-0.125 h 0.5 l 0.125,0.375 q 0.125,0.375 0.5625,0.4375 l 0.4375,0.0625 -0.0625,-0.0625 -0.0625,-0.0625 0.125,0.125 q 0.125,0.125 0.375,0.125 h 0.25 -0.375 -0.375 0.5 0.5 -0.375 -0.375 0.25 q 0.25,0 0.375,-0.125 l 0.125,-0.125 -0.0625,0.0625 -0.0625,0.0625 h 0.625 0.625 l -0.0625,-0.0625 -0.0625,-0.0625 0.125,0.125 q 0.125,0.125 0.375,0.125 h 0.25 -0.375 -0.375 0.5 0.5 -0.375 -0.375 0.25 q 0.25,0 0.375,-0.125 l 0.125,-0.125 -0.0625,0.0625 -0.0625,0.0625 -0.0625,0.4375 q -0.0625,0.4375 -0.3125,0.6875 -0.25,0.25 -0.375,0.625 -0.125,0.375 -0.125,0.875 0,0.5 0,1 0,0.5 0,1 0,0.5 0,1 0,0.5 -0.125,0.875 -0.125,0.375 -0.375,0.625 -0.25,0.25 -0.375,0.625 l -0.125,0.375 h -0.5 -0.5 -0.5 -0.5 -0.5 -0.5 -0.5 -0.5 -0.5 -0.5 -0.5 -0.5 l 0.125,-0.375 q 0.125,-0.375 0.375,-0.625 0.25,-0.25 0.375,-0.625 0.125,-0.375 0.125,-0.875 0,-0.5 0,-1 0,-0.5 0,-1 0,-0.5 0,-1 0,-0.5 0,-1 0,-0.5 -0.01563,-1.015625 l -0.01563,-0.515625 -0.109375,0.01563 -0.109375,0.01563 0.21875,-0.03125 q 0.21875,-0.03125 0.40625,-0.09375 l 0.1875,-0.0625 -0.28125,0.09375 -0.28125,0.09375 0.375,-0.125 q 0.375,-0.125 0.625,-0.375 m 2.125,-0.5 h -0.125 -0.375 -0.375 0.25 q 0.25,0 0.5,0 h 0.25 -0.125"
       id="path1777" /><path
       style="fill:#000000;fill-opacity:1"
       d="m 70.625256,53.526428 q 0.1875,-0.4375 0.5625,-0.5625 0.375,-0.125 0.75,-0.25 l 0.375,-0.125 -0.28125,0.09375 -0.28125,0.09375 0.1875,-0.0625 q 0.1875,-0.0625 0.34375,-0.15625 l 0.15625,-0.09375 -0.07813,0.04687 -0.07813,0.04687 0.265625,0.265625 q 0.265625,0.265625 0.265625,0.515625 0,0.25 -0.265625,0.546875 l -0.265625,0.296875 0.04687,0.04687 0.04687,0.04687 -0.09375,-0.09375 q -0.09374,-0.09374 -0.21874,-0.09374 h -0.125 0.1875 0.1875 -0.25 q -0.25,0 -0.375,0.375 l -0.125,0.375 v -0.375 -0.375 0.25 q 0,0.25 0.125,0.375 l 0.125,0.125 -0.0625,-0.0625 -0.0625,-0.0625 h -0.625 -0.625 l -0.0625,0.0625 -0.0625,0.0625 0.125,-0.125 q 0.125,-0.125 0.125,-0.375 v -0.25 0.375 0.375 -0.5 -0.5 0.375 0.375 -0.25 q 0,-0.25 -0.125,-0.375 l -0.125,-0.125 0.0625,0.0625 0.0625,0.0625 0.1875,-0.4375"
       id="path1775" /><path
       style="fill:#780422;fill-opacity:1"
       d="m 62.562756,46.338928 q 0.25,-0.25 0.625,-0.375 0.375,-0.125 0.875,-0.125 0.5,0 0.875,0.125 0.375,0.125 0.625,0.375 0.25,0.25 0.5,0.5 0.25,0.25 0.5,0.5 0.25,0.25 0.625,0.375 0.375,0.125 0.75,0.25 0.375,0.125 0.625,0.375 0.25,0.25 0.625,0.375 0.375,0.125 0.75,0.25 0.375,0.125 0.625,0.375 0.25,0.25 0.625,0.375 0.375,0.125 0.875,0.125 0.5,0 1,0 0.5,0 1,0 0.5,0 0.875,0.125 0.375,0.125 0.375,0.375 0,0.25 -0.375,0.375 -0.375,0.125 -0.75,0.25 -0.375,0.125 -0.625,0.375 -0.25,0.25 -0.5,0.5 -0.25,0.25 -0.5,0.5 -0.25,0.25 -0.625,0.375 -0.375,0.125 -0.75,0.25 -0.375,0.125 -0.5625,0.5625 l -0.1875,0.4375 0.0625,0.0625 0.0625,0.0625 -0.125,-0.125 q -0.125,-0.125 -0.375,-0.125 h -0.25 0.375 0.375 -0.5 -0.5 0.375 0.375 -0.25 q -0.25,0 -0.375,0.125 l -0.125,0.125 0.0625,-0.0625 0.0625,-0.0625 -0.5625,-0.0625 q -0.5625,-0.0625 -1.0625,-0.0625 -0.5,0 -0.875,0.125 -0.375,0.125 -0.625,0.375 -0.25,0.25 -0.625,0.375 -0.375,0.125 -0.875,0.125 -0.5,0 -0.875,0.125 -0.375,0.125 -0.625,0.375 -0.25,0.25 -0.625,0.375 -0.375,0.125 -0.75,0 -0.375,-0.125 -0.375,-0.375 0,-0.25 0.25,-0.5 0.25,-0.25 0.5,-0.5 0.25,-0.25 0.5,-0.5 0.25,-0.25 0.5,-0.5 0.25,-0.25 0.5,-0.5 0.25,-0.25 0.5,-0.5 0.25,-0.25 0.5,-0.5 0.25,-0.25 0.375,-0.625 0.125,-0.375 0,-0.75 -0.125,-0.375 -0.375,-0.625 -0.25,-0.25 -0.375,-0.625 -0.125,-0.375 -0.25,-0.75 -0.125,-0.375 -0.5,-0.5 -0.375,-0.125 -0.75,0 -0.375,0.125 -0.625,0.375 -0.25,0.25 -0.5,0.25 -0.25,0 -0.375,-0.375 -0.125,-0.375 0,-0.75 0.125,-0.375 0.375,-0.625 0.25,-0.25 0.5,-0.5"
       id="path1773" /><path
       style="fill:#000000;fill-opacity:0"
       d="m 59.562756,44.338928 v -0.5 h 0.5 0.5 0.5 0.5 0.5 0.5 0.5 0.5 0.5 0.5 0.5 0.5 0.5 0.5 0.5 0.5 0.5 0.5 0.5 0.5 0.5 0.5 0.5 0.5 0.5 0.5 0.5 0.5 0.5 0.5 0.5 0.5 0.5 0.5 0.5 0.5 v 0.5 0.5 0.5 0.5 0.5 0.5 0.5 0.5 0.5 0.5 0.5 0.5 0.5 0.5 0.5 0.5 0.5 0.5 0.5 0.5 0.5 0.5 0.5 0.5 0.5 0.5 0.5 0.5 0.5 0.5 0.5 0.5 0.5 0.5 0.5 0.5 0.5 0.5 h -0.5 -0.5 -0.5 -0.5 -0.5 -0.5 -0.5 -0.5 -0.5 -0.5 -0.5 -0.5 -0.5 -0.5 l 0.125,-0.375 q 0.125,-0.375 0.375,-0.625 0.25,-0.25 0.375,-0.625 0.125,-0.375 0.125,-0.875 0,-0.5 0,-1 0,-0.5 0,-1 0,-0.5 0,-1 0,-0.5 0.125,-0.875 0.125,-0.375 0.375,-0.625 0.25,-0.25 0.3125,-0.6875 l 0.0625,-0.4375 -0.0625,0.0625 -0.0625,0.0625 0.125,-0.125 q 0.125,-0.125 0.125,-0.375 v -0.25 0.375 0.375 l -0.125,-0.375 -0.125,-0.375 0.09375,0.28125 0.09375,0.28125 -0.0625,-0.1875 q -0.0625,-0.1875 -0.15625,-0.28125 l -0.09375,-0.09375 0.04687,0.04687 0.04687,0.04687 0.265625,-0.296875 q 0.265635,-0.296865 0.265635,-0.546865 0,-0.25 -0.265625,-0.515625 l -0.265625,-0.265625 -0.07813,0.04687 -0.07813,0.04687 0.15625,-0.09375 q 0.15625,-0.09375 0.28125,-0.21875 l 0.125,-0.125 -0.1875,0.1875 -0.1875,0.1875 0.25,-0.25 q 0.25,-0.25 0.5,-0.5 0.25,-0.25 0.5,-0.5 0.25,-0.25 0.625,-0.375 0.375,-0.125 0.75,-0.25 0.375,-0.125 0.375,-0.375 0,-0.25 -0.375,-0.375 -0.375,-0.125 -0.875,-0.125 -0.5,0 -1,0 -0.5,0 -1,0 -0.5,0 -0.875,-0.125 -0.375,-0.125 -0.625,-0.375 -0.25,-0.25 -0.625,-0.375 -0.375,-0.125 -0.75,-0.25 -0.375,-0.125 -0.625,-0.375 -0.25,-0.25 -0.625,-0.375 -0.375,-0.125 -0.75,-0.25 -0.375,-0.125 -0.625,-0.375 -0.25,-0.25 -0.5,-0.5 -0.25,-0.25 -0.5,-0.5 -0.25,-0.25 -0.625,-0.375 -0.375,-0.125 -0.875,-0.125 -0.5,0 -0.875,0.125 -0.375,0.125 -0.625,0.375 -0.25,0.25 -0.5,0.5 -0.25,0.25 -0.375,0.625 -0.125,0.375 0,0.75 0.125,0.375 0.375,0.375 0.25,0 0.5,-0.25 0.25,-0.25 0.625,-0.375 0.375,-0.125 0.75,0 0.375,0.125 0.5,0.5 0.125,0.375 0.25,0.75 0.125,0.375 0.375,0.625 0.25,0.25 0.375,0.625 0.125,0.375 0,0.75 -0.125,0.375 -0.375,0.625 -0.25,0.25 -0.5,0.5 -0.25,0.25 -0.5,0.5 -0.25,0.25 -0.5,0.5 -0.25,0.25 -0.5,0.5 -0.25,0.25 -0.5,0.5 -0.25,0.25 -0.5,0.5 -0.25,0.25 -0.25,0.5 0,0.25 0.375,0.375 0.375,0.125 0.75,0 0.375,-0.125 0.625,-0.375 0.25,-0.25 0.625,-0.375 0.375,-0.125 0.875,-0.125 h 0.5 -0.375 -0.375 0.25 q 0.25,0 0.46875,-0.03125 l 0.21875,-0.03125 -0.109375,0.01563 -0.109375,0.01563 0.01563,0.515625 q 0.01563,0.515625 0.01563,1.015625 0,0.5 0,1 0,0.5 0,1 0,0.5 0,1 0,0.5 0,1 0,0.5 -0.125,0.875 -0.125,0.375 -0.375,0.625 -0.25,0.25 -0.375,0.625 l -0.125,0.375 h -0.5 -0.5 -0.5 -0.5 -0.5 -0.5 -0.5 -0.5 -0.5 -0.5 v -0.5 -0.5 -0.5 -0.5 -0.5 -0.5 -0.5 -0.5 -0.5 -0.5 -0.5 -0.5 -0.5 -0.5 -0.5 -0.5 -0.5 -0.5 -0.5 -0.5 -0.5 -0.5 -0.5 -0.5 -0.5 -0.5 -0.5 -0.5 -0.5 -0.5 -0.5 -0.5 -0.5 -0.5 -0.5 -0.5 -0.5"
       id="path1771" /></g></svg>
